<?xml version="1.0" encoding="utf-8"?>
<!-- Generator: Adobe Illustrator 16.0.0, SVG Export Plug-In . SVG Version: 6.00 Build 0)  -->
<!DOCTYPE svg PUBLIC "-//W3C//DTD SVG 1.1//EN" "http://www.w3.org/Graphics/SVG/1.1/DTD/svg11.dtd">
<svg version="1.1" id="Layer_1" xmlns="http://www.w3.org/2000/svg" xmlns:xlink="http://www.w3.org/1999/xlink" x="0px" y="0px"
	 width="472.108px" height="132.153px" viewBox="0 0 472.108 132.153" enable-background="new 0 0 472.108 132.153"
	 xml:space="preserve">
<g>
	<path fill="#FFFFFF" d="M98.925,12.39v0.256l0.783,0.523l0.519,0.517l0.52,0.779l0.783,0.517l0.256,0.782l0.52,0.772l0.25,0.783
		l0.263,0.775v1.039l0,0h1.045l0.77,0.257l0.782,0.259l1.032,0.52l0.526,0.259l0.775,0.516l0.783,0.779l0.505,0.52l0.526,0.517
		l0.52,0.782l0.519,0.776l0.264,0.782l0.256,0.773l0.263,0.779l0.256,1.036v0.782l0,0v0.26l0,0v0.257l0,0l0,0h0.256V28.73h0.257l0,0
		h0.256l0,0l0,0l1.045-0.26l1.039-0.259h0.776h1.04h0.776l0.77,0.259l1.045,0.26l0.776,0.257l0.782,0.519l0.771,0.26l0.526,0.519
		l0.782,0.517l0.512,0.783l0.521,0.513l0.512,0.782l0.52,0.779l0,0h1.038h0.783h0.775h1.04l0.782,0.256l1.026,0.259l0.782,0.264
		l0.783,0.256l0.782,0.516l0.513,0.519l0.776,0.776l0.519,0.52l0.52,0.782l0.52,0.517l0.519,1.042l0.263,0.773l0,0v0.262l0,0
		l0.256,0.257l0,0v0.26l0,0v0.259l0,0h1.032l1.04,0.256l0.782,0.264l1.033,0.256l0.776,0.523l1.039,0.256l0.782,0.52l0.77,0.522
		l0.789,0.772l0.776,0.519l0.52,0.78l0.769,0.779l0.526,0.779l0.52,0.776l0.256,1.039l0.527,0.775l0,0l0,0l0,0l0.256,1.04v1.039
		l0.257,1.039v0.772v1.042v1.036l-0.257,0.775l-0.256,1.039l-0.263,0.775l-0.52,1.04l-0.263,0.779l-0.783,0.779l-0.506,0.775
		l-0.526,0.779l-0.776,0.514l-0.783,0.783l0,0h0.264v0.256l0,0v0.263l0,0h0.263v0.263v0.25l0.256,0.79l0.263,0.774v0.777v1.04
		l-0.263,0.775l-0.256,0.775l-0.263,0.783l-0.264,0.775l-0.262,0.775l-0.513,0.782l-0.776,0.775l-0.519,0.513l-0.52,0.526
		l-0.775,0.515l-0.776,0.524l-0.783,0.251l0,0v1.039v0.782v0.775v1.046l-0.256,0.775l-0.263,0.776l-0.513,0.775l-0.263,0.775
		l-0.52,0.527l-0.52,0.775l-0.513,0.521l-0.782,0.519l-0.783,0.513l-0.775,0.526l-0.776,0.251l-1.039,0.526l0,0l0,0h-0.256l0,0l0,0
		h0.256v0.255l0.256,0.258v0.263l0.526,0.776l0.513,0.523l0.263,1.033l0.257,0.777l0.262,0.782l0.257,0.775v0.775l-0.257,1.039
		v0.775l-0.262,0.775l-0.257,0.782l-0.263,0.777l-0.513,0.782l-0.526,0.775l-0.513,0.521l-0.783,0.784l0,0l0.526,0.775l0.256,0.775
		l0.256,0.775l0.256,0.781v0.771v1.039v0.782l-0.256,0.776v0.781l-0.256,0.776l-0.52,0.775l-0.519,0.784l-0.525,0.775l-0.507,0.52
		l-0.783,0.776l-0.782,0.519l0,0l0,0l-0.263,0.263l0,0h-0.256v0.257l0,0H127.2l0,0l0.257,1.04v0.775v1.039v1.039v0.775l-0.257,1.039
		l-0.25,0.777l-0.269,1.036l-0.257,0.776l-0.519,0.784l-0.52,1.032l-0.52,0.775l-0.783,0.524l-0.512,0.775l-0.776,0.777
		l-1.038,0.527l0,0l0,0l0,0l-0.783,0.512l-1.032,0.519l-0.776,0.521l-1.039,0.262l-0.777,0.251l-1.039,0.263h-1.04l-1.039,0.258
		h-1.039l-1.039-0.258h-0.769l-1.046-0.263l-1.032-0.251l-0.775-0.525l-1.04-0.257l-0.783-0.519l0,0l-0.262,0.256h-0.256
		l-0.263,0.263l0,0l-0.77,0.782l-1.039,0.251l-0.782,0.263l-0.783,0.258l-1.025,0.264h-0.783h-1.038h-0.783l0,0v-5.965l0.525-0.263
		h0.776l0.776-0.264l0.782-0.249l0.77-0.52l0.783-0.521l0,0l0.256-0.263h0.27l0.256-0.262l0,0l0.783,0.524l0.77,0.258l0.776,0.521
		h0.782l1.039,0.263l0.77,0.249h0.783h1.046h0.776l1.039-0.249h0.776l1.039-0.263l0.776-0.521l0.776-0.258l0.776-0.524l0.784-0.515
		l0,0l0,0l0,0l0.775-0.519l0.783-0.518l0.776-0.777l0.519-0.52l0.514-0.777l0.519-0.781l0.264-0.775l0.256-0.775l0.256-0.784
		l0.27-0.782l0.256-0.77v-1.045v-0.775v-0.777v-0.774l-0.256-1.04l0,0h0.256l0,0l0,0l0.256-0.262l0,0l0,0h0.256l0,0l0.777-0.515
		l0.52-0.781l0.52-0.521l0.519-0.513l0.526-0.775l0.257-0.789l0.257-0.513l0.269-0.775v-0.775v-0.784v-0.782v-0.77v-0.783
		l-0.269-0.775l-0.257-0.525l-0.519-0.777l0,0l0.519-0.513l0.526-0.775l0.507-0.526l0.256-0.775l0.526-0.518l0.256-0.784v-0.776
		l0.262-0.775v-0.775v-0.784l-0.262-0.77v-0.781l-0.256-0.519l-0.263-0.775l-0.519-0.777l-0.507-0.526v-0.264v-0.249h-0.269
		l-0.257-0.263l0,0h0.257l0,0l0,0h0.269l0.763-0.256l0.783-0.521l0.526-0.262l0.776-0.514l0.506-0.527l0.526-0.513l0.526-0.526
		l0.513-0.769l0.256-0.52l0.526-0.775l0.257-0.789v-0.775l0.256-0.778v-0.519v-1.032l-0.256-0.782l0,0l0.776-0.257l0.775-0.263
		l0.526-0.513l0.776-0.519l0.52-0.521l0.526-0.782l0.25-0.515l0.52-0.78l0.263-0.776l0.256-0.521l0.257-0.775V68.15v-0.775v-0.777
		l-0.257-0.774l-0.256-0.79l0,0v-0.25l0,0v-0.263l0,0l0,0l-0.263-0.263l0,0l0,0l0.776-0.776l0.519-0.512l0.526-0.783l0.506-0.52
		l0.526-0.779l0.513-0.779l0.263-0.775l0.263-0.78l0.257-0.775l0.256-0.783v-1.032V55.18v-0.776l-0.256-1.035v-0.779l-0.257-0.776
		l0,0l0,0l0,0l-0.263-1.043l-0.52-0.776l-0.256-0.775l-0.526-0.779l-0.77-0.519l-0.519-0.776l-0.52-0.52l-0.783-0.523l-0.776-0.512
		l-0.776-0.523l-0.776-0.519l-0.782-0.257l-0.776-0.259l-1.033-0.257l-0.782-0.263h-0.783l0,0h-0.256v-0.259l0,0v-0.261l0,0v-0.259
		l0,0l0,0l-0.27-0.779l-0.506-0.776l-0.257-0.776l-0.519-0.522l-0.526-0.513l-0.783-0.523l-0.513-0.519l-0.775-0.517l-0.783-0.26
		l-0.519-0.26l-0.776-0.263l-0.775-0.257h-1.033h-0.782h-0.783h-0.776l0,0l-0.256-0.516l-0.52-0.779l-0.52-0.516l-0.519-0.519
		l-0.775-0.523l-0.52-0.517l-0.776-0.519l-0.52-0.26l-0.782-0.26l-0.776-0.263h-0.776l-0.776-0.254h-1.039h-0.776l-0.782,0.254
		l-0.776,0.263l0,0h-0.27l0,0h-0.256l0,0l-0.249,0.26l0,0l0,0l0,0v-0.26l0,0l0,0v-0.263v-0.776l-0.264-0.776v-0.779l-0.262-0.779
		l-0.514-0.776l-0.263-0.523l-0.52-0.772l-0.519-0.523l-0.52-0.519l-0.77-0.517l-0.526-0.256l-0.783-0.525l-0.512-0.257l-0.776-0.26
		l-0.776-0.256h-1.04l0,0v-1.042l-0.263-0.517l-0.262-0.779l-0.256-0.773l-0.526-0.782l-0.256-0.519V12.39L98.925,12.39z
		 M98.925,110.425l26.46-14.001l1.296-47.725l-24.896,17.897c0.256,1.296,0.77,2.593,0.77,3.631
		c7.01-3.895,16.61-8.302,17.643-6.747c1.815,2.598-7.516,17.899-8.299,17.642c-4.406-1.558-3.892-8.042-6.483-9.6l-2.598,1.295
		c0,0.52,0.263,1.038,0.263,1.551c0,7.786,0,14.271-4.156,18.676V110.425L98.925,110.425z M98.925,60.372
		c0.525,0.779,1.039,1.815,1.564,2.847l21.779-17.117l-11.666-7.519l-11.678,16.86V60.372L98.925,60.372z M98.925,50.258
		l9.081-13.233l-9.081-5.704V50.258z M92.191,10.831h0.257l0,0h0.25l0,0h0.263l0,0h1.046h0.769l1.039,0.26l0.783,0.263l0.776,0.256
		l0.782,0.516l0.77,0.264v7h-0.25l-0.52-0.517l-0.52-0.52l-0.526-0.516l-0.775-0.52l-0.52-0.263l-0.769-0.257l-0.783-0.516h-1.039
		h-0.776l-0.257-0.264V10.831L92.191,10.831z M98.925,129.364h-0.77L97.11,129.1l-0.775-0.258l-0.776-0.263l-0.782-0.513
		l-0.769-0.521l-0.782-0.519l-0.526-0.775l0,0l-0.507,0.264v-5.196l0.507,0.263l0.526,0.521l0.782,0.257l0.769,0.263l0.782,0.249
		l0.776,0.264h0.775l0.783,0.263h0.783h0.25V129.364L98.925,129.364z M98.925,31.321v18.938l-3.879,5.441
		c-1.039-0.772-1.821-1.556-2.854-2.331v-8.562l5.182-14.262L98.925,31.321L98.925,31.321z M98.925,55.443l-1.815,2.334
		c0.526,0.775,1.046,1.556,1.815,2.594V55.443L98.925,55.443z M98.925,93.045v17.38l-6.734,3.373V96.68
		c2.584-0.782,4.406-1.818,5.701-2.851h-3.629l0,0h-2.072V70.228h6.22v5.707h-5.451l5.714,17.11
		C98.675,93.045,98.675,93.045,98.925,93.045L98.925,93.045z M92.191,68.15v-5.701h5.182v5.701H92.191L92.191,68.15z M92.191,35.993
		l2.584-7.006l-2.584-1.556V35.993z M88.037,5.903l0.519,0.259l0.776,0.52l0.52,0.775l0.513,0.783l0.783,0.772l0.269,0.783
		l0.513,1.036l0,0h0.263l0,0l0,0v5.188h-0.52l0,0h-0.256l0,0h-0.269l0,0H90.89l0,0h-0.263l0,0l-0.263-0.779l-0.513-0.775l-0.52-0.52
		l-0.513-0.776l-0.527-0.523l-0.255-0.256V5.903L88.037,5.903z M92.191,126.516l-0.263,0.249l-1.039,0.263l-0.782,0.256
		l-0.776,0.263h-1.04h-0.255v-5.964h0.255l0.783-0.263l0.776-0.262l0.776-0.251l0.789-0.264l0,0l0.513,0.515l0.263,0.262V126.516
		L92.191,126.516z M92.191,27.431v8.562l-4.155,11.412V24.837L92.191,27.431L92.191,27.431z M92.191,44.807l-2.591,7.006
		c1.026,0.516,1.815,1.035,2.591,1.555V44.807L92.191,44.807z M92.191,62.449v5.701h-2.083v2.078h2.083V93.83h-4.155v-4.926h3.892
		l-3.892-11.679l0,0V55.699h2.071v6.75H92.191L92.191,62.449z M92.191,96.68v17.118l-4.155,2.078V97.714
		C89.601,97.458,90.89,96.937,92.191,96.68z M79.481,122.873L79.481,122.873V98.503c3.11-0.264,6.22-0.525,8.556-0.789v18.162
		l-6.748,3.631l0.264,0.261l0.519,0.515l0.783,0.261l0.769,0.264l0.782,0.251l0.783,0.262l0.77,0.263h0.775h0.783h0.52v5.964h-0.52
		h-1.032l-0.783-0.263l-0.782-0.256l-0.776-0.263l-1.032-0.249l-0.782-0.527l-0.514-0.512l-0.782-0.526l-0.776-0.515l-0.519-0.775
		v-0.262l0,0l-0.257-0.263V122.873L79.481,122.873L79.481,122.873L79.481,122.873L79.481,122.873z M79.481,2.789h0.776h1.032
		l1.04,0.263l1.044,0.256l1.033,0.263l0.783,0.516l1.039,0.516l0.769,0.523l0.776,0.516l0.264,0.26v6.487l-0.52-0.264l-0.52-0.772
		l-0.769-0.263l-0.783-0.52l-0.782-0.519L83.88,9.795l-0.77-0.26l-1.04-0.259l-0.782-0.263h-1.032h-0.776V2.789L79.481,2.789z
		 M88.037,24.837v22.567l-1.04,3.366c-1.808-0.776-3.624-1.032-5.444-1.295V20.69L88.037,24.837L88.037,24.837z M88.037,55.699
		v21.526l-3.894,11.679h3.894v4.926h-6.484l0,0h-2.072v-6.74l3.63-11.154h-3.63v-5.707h4.925V68.15h-4.925v-5.701h4.925v-6.75
		H88.037z M79.481,122.873l-0.263,0.264v0.263h-0.256v0.262l-0.52,0.775l-0.782,0.515l-0.776,0.526l-0.513,0.512l-0.782,0.527
		l-1.039,0.249l-0.776,0.263l-0.782,0.256h-0.256v-5.701l0,0l0.782-0.263l0.776-0.262l0.769-0.251l0.783-0.264l0.782-0.261
		l0.52-0.515l0.25-0.261l-4.662-2.592V98.24c2.071,0.264,4.149,0.264,6.483,0.264h0.263V122.873L79.481,122.873z M72.735,4.347
		l0.782-0.26l0.776-0.516l1.026-0.263l1.052-0.256l0.776-0.263h1.033h1.038l0,0l0,0l0,0h0.263v6.224h-0.263l0,0l0,0l0,0h-0.776
		h-1.045l-0.77,0.263l-1.039,0.259l-0.783,0.26l-0.77,0.257l-0.782,0.519h-0.519V4.347L72.735,4.347z M79.481,62.449v5.701h-1.039
		v-5.701H79.481L79.481,62.449z M79.481,70.228v5.707h-2.084v-5.707H79.481L79.481,70.228z M79.481,87.089v6.74h-2.334
		L79.481,87.089L79.481,87.089z M72.735,93.83V79.829h2.854V93.83H72.735L72.735,93.83z M72.735,74.37V57.514h3.892v13.234
		L72.735,74.37L72.735,74.37z M72.735,49.739V24.058l5.707-3.367v28.785c-1.815,0-3.636,0.263-5.451,0.783L72.735,49.739z
		 M72.735,127.284l-0.52,0.263h-1.032H70.4h-1.039l-0.263-0.263v-6.226l0.52,0.262l0.782,0.263h0.783h0.775h0.776V127.284
		L72.735,127.284z M69.098,7.198l0.263-0.516l0.783-0.52l0.776-0.52l0.77-0.516l0.782-0.523l0.264-0.256v6.224l-0.264,0.52
		l-0.782,0.263l-0.77,0.772l-0.52,0.52l-0.52,0.523l-0.52,0.776l-0.263,0.26V7.198L69.098,7.198z M72.735,24.058v25.681
		l-3.637-10.373V26.392L72.735,24.058L72.735,24.058z M72.735,57.514V74.37l-3.637,3.638v-7.516l0.782-0.784V57.514H72.735
		L72.735,57.514z M72.735,79.829V93.83H69.88V79.829H72.735L72.735,79.829z M72.735,98.24v18.676l-3.637-2.078V97.714
		C70.144,97.978,71.432,98.24,72.735,98.24L72.735,98.24z M69.098,51.813c0.263-0.26,0.782-0.26,1.045-0.523l-1.045-3.11V51.813z
		 M69.098,127.284h-0.513l-0.783-0.256l-1.033-0.263l-0.782-0.513l0,0l-0.52,0.775l-0.775,0.519l-0.776,0.521v-5.443l0.776-0.263
		l0.775-0.257l0.52-0.521l0.782-0.524l0.514-0.515l0,0l0.776,0.264l0.782,0.251h0.256V127.284L69.098,127.284z M63.917,10.831h0.776
		h1.039l0,0h0.256l0,0h0.264l0,0h0.262l0,0h0.256l0,0l0.257-1.036l0.526-0.783L68.06,8.24l0.782-0.783l0.256-0.26v7.006l-0.256,0.26
		l-0.52,0.775l-0.263,0.779h-0.257l0,0h-0.25l0,0l0,0h-0.269l0,0h-0.257l0,0l-1.039,0.264h-0.776h-0.775l-0.52,0.252V10.831
		L63.917,10.831z M69.098,26.392v12.974L65.212,28.73L69.098,26.392L69.098,26.392z M69.098,48.18l-5.182-13.743v19.447l0.776,0.779
		c1.295-1.032,2.86-2.074,4.405-2.85V48.18L69.098,48.18z M69.098,70.492v7.516l-1.814,1.559v14.526l-3.367,0.255V74.633
		L69.098,70.492L69.098,70.492z M69.098,97.714v17.123l-5.182-3.117V96.164C65.468,96.937,67.027,97.458,69.098,97.714
		L69.098,97.714z M63.917,71.267h2.854V57.514h-2.854V71.267z M63.917,128.067L63.917,128.067l-0.775,0.513l-0.783,0.263
		l-0.782,0.258v-5.964h0.782l0.783-0.264l0.775-0.249l0,0V128.067L63.917,128.067z M61.576,11.354h0.525l0.776-0.263l0.776-0.26
		h0.263v5.704l-0.263,0.264l-0.776,0.257l-0.519,0.263l-0.782,0.52V11.354L61.576,11.354z M63.917,34.438v19.447l-2.34-3.367V31.063
		l1.039-0.519L63.917,34.438L63.917,34.438z M63.917,57.514v13.753h-2.34V57.514H63.917L63.917,57.514z M63.917,74.633v19.714h-2.34
		V76.448L63.917,74.633L63.917,74.633z M63.917,96.164v15.557l-2.34-1.295V95.123C62.358,95.386,63.141,95.898,63.917,96.164
		L63.917,96.164z M61.576,56.738v-0.516l0.256,0.26C61.833,56.482,61.833,56.482,61.576,56.738z M61.576,129.1L61.576,129.1
		l-1.033,0.264h-0.783h-0.775h-1.033H57.17l-1.039-0.264l-0.783-0.258l-0.769-0.263l-1.039-0.251l-0.783-0.782h-0.256v-0.263h-0.25
		l-0.263-0.256l0,0l-0.782,0.519l-1.04,0.257l-0.256,0.264v-5.443h0.513l1.045-0.263h0.783l0.763-0.521l0.783-0.258l0.783-0.524l0,0
		l0.262,0.262h0.257l0.25,0.263l0,0l0.783,0.521l0.782,0.52l0.783,0.249l0.782,0.264h0.77l0.775,0.263h0.783l0.77-0.263l0,0V129.1
		L61.576,129.1z M49.911,21.983l0.256-0.26l0.783-0.779l0.519-0.516l0.783-0.259l0.763-0.52l1.045-0.259l0.782-0.257h1.033l0,0
		v-1.039l0.257-0.775l0.256-0.783l0.526-0.772l0.256-0.782l0.527-0.517l0.782-0.779l0.507-0.517l0.775-0.523l0.526-0.52l0.776-0.516
		l0.513-0.256v6.483l0,0l-0.513,0.516l-0.52,0.52l-0.783,0.517l-0.256,0.519l-0.52,0.782l-0.257,0.773l-0.25,0.779l-0.27,0.517
		l-0.257,1.042l0,0H57.17l-0.782,0.256l-0.776,0.26l-0.513,0.257L54.323,25.1l-0.782,0.256l-0.526,0.517l-0.513,0.519l-0.513,0.523
		l-0.52,0.772l-0.262,0.523l-0.52,0.776l-0.264,0.779v0.779l-0.257,0.776v0.776v0.263l0,0l0,0v0.26l0,0l0,0l0,0l-0.256-0.26l0,0
		V21.983L49.911,21.983z M61.576,31.063l-9.325,5.705l9.325,13.75V31.063L61.576,31.063z M61.576,56.222v0.516
		c-1.289,1.298-2.591,2.854-3.624,4.669l-8.042-6.48V38.843L61.576,56.222L61.576,56.222z M61.576,57.514h-0.513v13.753h0.513
		V57.514L61.576,57.514z M61.576,76.448v17.899l0,0V76.448L61.576,76.448L61.576,76.448z M61.576,95.123v15.303l-11.666-6.74V79.04
		c2.078-2.592,2.078-6.74,4.149-8.035l1.815,0.78c-0.263,0.772-0.263,1.817-0.263,2.585C55.612,83.195,55.349,90.975,61.576,95.123
		L61.576,95.123z M49.911,66.08c2.078,1.031,4.149,2.07,6.221,3.367c0.256-1.297,0.526-2.85,1.039-3.887l-7.259-5.452V66.08z
		 M49.911,128.067l-0.526,0.262l-1.033,0.251l-1.039,0.263h-0.776l-1.033,0.258H44.46l-1.033-0.258h-0.775l-1.04-0.263l-1.04-0.251
		l-1.039-0.262l-0.776-0.521l-1.046-0.519l-0.775-0.512l0,0l0,0l0,0l-1.032-0.527l-0.519-0.777l-0.776-0.775l-0.782-0.524
		l-0.513-0.775l-0.521-1.032l-0.519-0.784l-0.263-0.776l-0.263-1.036l-0.256-0.777l-0.257-1.039v-0.775v-1.039v-1.039v-0.775
		l0.257-1.04l0,0l0,0h-0.257v-0.257h-0.263l0,0v-0.263H30.71l0,0l-0.764-0.519l-0.782-0.776l-0.526-0.52l-0.52-0.775l-0.512-0.784
		l-0.264-0.775l-0.256-0.776l-0.256-0.781l-0.264-0.776v-0.782v-1.039v-0.771l0.264-0.781l0.256-0.775l0.256-0.775l0.52-0.775l0,0
		l-0.776-0.784l-0.52-0.521l-0.519-0.775l-0.257-0.782l-0.526-0.777l-0.257-0.782l-0.257-0.775v-0.775v-1.039v-0.775v-0.775
		l0.257-0.782l0.257-0.777l0.262-1.033l0.521-0.523l0.519-0.776v-0.263l0.264-0.258h0.256v-0.255l0,0l0,0h-0.256l0,0l0,0
		l-1.039-0.526l-0.783-0.251l-0.783-0.526l-0.769-0.513l-0.52-0.519l-0.782-0.521l-0.52-0.775l-0.506-0.527l-0.27-0.775
		l-0.513-0.775l-0.27-0.776l-0.257-0.775v-1.046v-0.775v-0.782v-1.039h0.257l-1.032-0.251l-0.783-0.524l-0.513-0.515l-0.776-0.526
		l-0.525-0.513l-0.514-0.775l-0.525-0.782l-0.507-0.775l-0.263-0.775l-0.263-0.783L14.12,69.19v-0.775l-0.263-1.04l0.263-0.777
		l0.256-0.774v-0.79l0.263-0.25v-0.263l0,0l0,0v-0.263l0,0l0.263-0.256l0,0l0,0l-0.782-0.783l-0.783-0.514l-0.52-0.779l-0.512-0.775
		l-0.52-0.779l-0.513-0.779l-0.526-1.04l-0.257-0.775l-0.263-1.039v-0.775l-0.263-1.036v-1.042v-0.772l0.263-1.039v-1.039l0.52-1.04
		l0,0l0,0l0,0l0.256-0.775l0.526-1.039l0.256-0.776l0.776-0.779l0.512-0.779l0.526-0.78l0.776-0.519l0.776-0.772l0.782-0.522
		l0.776-0.52l1.039-0.256l0.776-0.523l1.04-0.256l1.039-0.264l0.775-0.256h1.033l0,0v-0.259l0,0l0.263-0.26l0,0v-0.257l0,0v-0.262
		l0,0l0.52-0.773l0.263-1.042l0.519-0.517l0.507-0.782l0.526-0.52l0.783-0.776l0.513-0.519l0.783-0.516l0.776-0.256l1.032-0.264
		l0.782-0.259l0.776-0.256h1.039h0.782h1.039h0.77l0,0l0.526-0.779l0.513-0.782l0.526-0.513l0.52-0.783l0.769-0.517l0.775-0.519
		l0.526-0.26l0.782-0.519l1.04-0.257l0.769-0.26l0.783-0.259h1.04h0.775h1.033l0.788,0.259l1.026,0.26l0,0h0.264l0,0l0,0h0.256
		v0.257h0.263l0,0l0,0V28.73l0,0v-0.26l0,0v-0.782l0.257-1.036v-0.779l0.526-0.773l0.256-0.782l0.526-0.776l0.513-0.782l0.513-0.517
		l0.263-0.259v10.376l0,0h-0.263l0,0l0,0h-0.263l-0.763-0.263l-0.782-0.254h-0.783h-1.032l-0.776,0.254H44.46l-0.776,0.263
		l-0.513,0.26l-0.782,0.26l-0.776,0.519l-0.519,0.517l-0.783,0.523l-0.514,0.519l-0.519,0.516l-0.257,0.779l-0.525,0.516l0,0h-0.783
		h-0.775h-0.769h-0.782l-0.776,0.257l-0.782,0.263l-0.776,0.26l-0.776,0.26l-0.782,0.517l-0.52,0.519l-0.519,0.523l-0.507,0.513
		l-0.526,0.522l-0.526,0.776l-0.256,0.776l-0.256,0.779h-0.264l0,0v0.259l0,0v0.261l0,0v0.259l0,0l0,0h-1.032l-0.783,0.263
		l-1.039,0.257l-0.783,0.259l-0.77,0.257l-0.776,0.519l-0.782,0.523l-0.776,0.512l-0.52,0.523l-0.782,0.52l-0.513,0.776l-0.52,0.519
		l-0.52,0.779l-0.512,0.775l-0.264,0.776l-0.519,1.043l0,0l0,0l0,0l-0.257,0.776v0.779l-0.263,1.035v0.776v0.783l0.263,1.032v0.783
		l0.257,0.775l0.263,0.78l0.52,0.775l0.25,0.779l0.52,0.779l0.525,0.52l0.513,0.783l0.526,0.512l0.783,0.776l0,0l0,0v0.263l0,0
		h-0.27v0.263l0,0v0.25l0,0l-0.256,0.79l-0.257,0.774v0.777v0.775l0.257,0.782v0.775l0.256,0.521l0.27,0.776l0.506,0.78l0.263,0.515
		l0.513,0.782l0.782,0.521l0.52,0.519l0.513,0.513l0.783,0.263l0.783,0.257l0,0l-0.264,0.782v1.032v0.519l0.264,0.778l0.257,0.775
		l0.256,0.789l0.263,0.775l0.264,0.52l0.513,0.769l0.52,0.526l0.52,0.513l0.513,0.527l0.782,0.514l0.526,0.262l0.77,0.521
		l0.776,0.256h0.263l0,0l0,0h0.263l0,0l-0.263,0.263l0,0l-0.263,0.249v0.264l-0.514,0.526l-0.525,0.777l-0.257,0.775l-0.25,0.519
		v0.781l-0.256,0.77v0.784v0.775l0.256,0.775v0.776l0.25,0.784l0.519,0.518l0.263,0.775l0.514,0.526l0.526,0.775l0.519,0.513l0,0
		l-0.262,0.777l-0.256,0.525l-0.263,0.775l-0.263,0.783v0.77v0.782v0.784v0.775l0.263,0.775l0.263,0.513l0.519,0.789l0.257,0.775
		l0.519,0.513l0.514,0.521l0.526,0.781l0.776,0.515l0,0h0.263l0,0h0.256v0.262l0,0h0.263l0,0l0,0l-0.263,1.04v0.774v0.777v0.775
		v1.045l0.263,0.77l0.249,0.782l0.264,0.784l0.256,0.775l0.52,0.775l0.256,0.781l0.526,0.777l0.782,0.52l0.513,0.777l0.776,0.518
		l0.783,0.519l0,0l0,0l0,0l0.775,0.515l0.783,0.524l0.775,0.258l1.033,0.521l0.788,0.263h0.776l1.032,0.249h0.783h1.039h0.769
		l0.263-0.249V128.067L49.911,128.067z M49.911,38.843l-0.263-0.519L37.982,45.59l11.928,9.337V38.843L49.911,38.843z
		 M49.911,60.108L33.57,48.44v45.907l16.341,9.338V79.04c-0.526,0.789-1.289,1.302-2.334,1.564
		c-0.782,0.258-9.864-15.044-8.298-17.635c0.783-1.043,5.444,0.775,10.633,3.11V60.108z"/>
	<g>
		<g>
			<path fill="#FFFFFF" d="M195.878,88.976c1.867-0.063,3.575-0.119,5.125-0.167c1.55-0.048,2.768-0.102,3.654-0.165
				c1.044-0.063,2.136-0.144,3.274-0.237c1.139-0.095,2.27-0.19,3.393-0.285c1.123-0.095,2.207-0.198,3.25-0.309
				c1.043-0.11,2.008-0.213,2.895-0.309l-0.759,4.462c-0.633-0.032-1.385-0.064-2.255-0.096c-0.87-0.032-1.811-0.056-2.823-0.071
				c-1.013-0.017-2.057-0.04-3.132-0.074c-1.076-0.03-2.135-0.047-3.179-0.047c-0.854,0-1.955,0.008-3.298,0.024
				c-1.345,0.018-2.8,0.04-4.366,0.072s-3.18,0.071-4.84,0.119c-1.662,0.048-3.235,0.103-4.722,0.166
				c-1.487,0.064-2.824,0.119-4.01,0.166c-1.186,0.048-2.081,0.088-2.682,0.12c-0.569,0.03-1.194,0.078-1.874,0.141
				c-0.681,0.063-1.369,0.127-2.064,0.19s-1.384,0.135-2.064,0.213c-0.681,0.08-1.29,0.15-1.827,0.215l-1.898-4.841
				c1.424,0.189,3.037,0.355,4.841,0.497c1.804,0.144,3.417,0.247,4.84,0.31c0.98,0.063,2.293,0.088,3.938,0.071
				c1.645-0.016,3.448-0.023,5.41-0.023v-5.79c0-0.475-0.04-0.862-0.118-1.162c-0.08-0.301-0.245-0.569-0.499-0.808
				c-0.253-0.236-0.625-0.442-1.115-0.616c-0.49-0.173-1.147-0.356-1.969-0.546l0.806-1.944c0.505,0,1.123,0.038,1.851,0.117
				c0.728,0.08,1.487,0.167,2.278,0.262c0.791,0.094,1.574,0.197,2.349,0.309s1.478,0.229,2.112,0.355
				c-0.064,0.285-0.127,0.641-0.19,1.067s-0.118,0.847-0.166,1.258c-0.047,0.411-0.087,0.791-0.118,1.138
				c-0.032,0.348-0.048,0.57-0.048,0.665V88.976z M201.715,86.27c0.506-2.088,0.933-4.19,1.282-6.311
				c0.348-2.119,0.585-4.223,0.711-6.312c-1.139,0-2.349,0.008-3.63,0.023c-1.281,0.017-2.546,0.039-3.796,0.071
				c-1.25,0.032-2.468,0.071-3.654,0.119c-1.186,0.048-2.271,0.103-3.25,0.165c-0.443,0.032-1.013,0.071-1.708,0.119
				c-0.697,0.048-1.432,0.111-2.207,0.189c-0.776,0.08-1.558,0.183-2.349,0.309c-0.791,0.128-1.519,0.285-2.183,0.475l-2.373-4.509
				c0.601,0.064,1.289,0.136,2.064,0.215c0.775,0.079,1.558,0.15,2.349,0.214c0.791,0.063,1.549,0.111,2.278,0.142
				c0.728,0.032,1.344,0.048,1.851,0.048c1.645,0,3.424-0.023,5.339-0.071c1.914-0.048,3.844-0.135,5.789-0.261
				c1.946-0.126,3.82-0.269,5.624-0.428c1.803-0.158,3.417-0.362,4.84-0.616l1.566,1.518c-0.444,2.405-0.997,4.849-1.661,7.331
				c-0.665,2.485-1.535,5.007-2.61,7.569H201.715z M197.777,96.378c1.265,0.222,2.427,0.594,3.488,1.114
				c1.059,0.523,1.969,1.155,2.728,1.899c0.759,0.743,1.345,1.573,1.756,2.491s0.617,1.883,0.617,2.895
				c0,1.234-0.277,2.381-0.83,3.441c-0.554,1.059-1.33,1.976-2.326,2.752c-0.997,0.774-2.175,1.384-3.536,1.827
				c-1.361,0.442-2.847,0.664-4.46,0.664s-3.101-0.222-4.46-0.664c-1.361-0.443-2.539-1.053-3.536-1.827
				c-0.996-0.776-1.772-1.693-2.325-2.752c-0.553-1.061-0.83-2.207-0.83-3.441c0-1.044,0.221-2.04,0.664-2.99
				c0.442-0.948,1.06-1.795,1.851-2.538c0.79-0.743,1.748-1.367,2.87-1.874c1.123-0.507,2.365-0.854,3.725-1.044
				c-0.063-0.441-0.246-0.783-0.545-1.021c-0.301-0.237-0.831-0.498-1.589-0.782l1.139-1.614c0.316,0.063,0.75,0.15,1.305,0.261
				c0.553,0.11,1.123,0.23,1.708,0.355c0.585,0.128,1.171,0.245,1.756,0.356c0.585,0.111,1.083,0.197,1.495,0.262
				c-0.063,0.315-0.166,0.664-0.309,1.044S197.871,95.968,197.777,96.378z M200.909,104.588c0-0.822-0.159-1.59-0.475-2.302
				c-0.316-0.712-0.736-1.328-1.258-1.852c-0.521-0.521-1.13-0.932-1.827-1.233c-0.696-0.3-1.408-0.45-2.135-0.45
				c-0.759,0-1.471,0.15-2.135,0.45c-0.664,0.302-1.25,0.713-1.756,1.233c-0.506,0.523-0.91,1.14-1.21,1.852
				c-0.301,0.712-0.451,1.479-0.451,2.302c0,0.823,0.15,1.589,0.451,2.301c0.3,0.712,0.704,1.321,1.21,1.827
				c0.506,0.507,1.092,0.902,1.756,1.187c0.664,0.285,1.376,0.428,2.135,0.428s1.479-0.143,2.159-0.428
				c0.68-0.284,1.281-0.68,1.803-1.187c0.522-0.506,0.942-1.115,1.258-1.827C200.75,106.177,200.909,105.412,200.909,104.588z"/>
			<path fill="#FFFFFF" d="M238.587,84.114c1.677,1.199,3.313,2.28,4.911,3.243s3.347,1.902,5.243,2.817l-4.032,3.504
				c0.758,0.159,1.645,0.349,2.657,0.57c1.013,0.221,1.803,0.41,2.372,0.566c-0.064,0.255-0.134,0.562-0.213,0.924
				c-0.079,0.364-0.183,0.751-0.31,1.162c1.235,0.188,2.357,0.538,3.37,1.044c1.011,0.506,1.882,1.123,2.61,1.851
				c0.728,0.728,1.297,1.543,1.708,2.443c0.411,0.902,0.616,1.859,0.616,2.871c0,1.172-0.277,2.263-0.83,3.275
				c-0.554,1.012-1.313,1.897-2.277,2.657c-0.966,0.759-2.104,1.353-3.417,1.778c-1.313,0.428-2.745,0.642-4.295,0.642
				c-1.582,0-3.03-0.214-4.342-0.642c-1.313-0.426-2.444-1.02-3.393-1.778c-0.95-0.76-1.693-1.646-2.231-2.657
				c-0.539-1.013-0.807-2.104-0.807-3.275c0-1.043,0.214-2.024,0.641-2.942c0.427-0.916,1.021-1.748,1.78-2.491
				c0.759-0.742,1.667-1.36,2.729-1.851c1.058-0.49,2.237-0.813,3.535-0.974c-0.033-0.379-0.198-0.688-0.499-0.924
				c-0.301-0.238-0.767-0.467-1.4-0.688l0.996-1.756c0.097,0.031,0.221,0.057,0.38,0.071c0.158,0.017,0.316,0.055,0.476,0.119
				c-1.203-1.298-2.476-2.578-3.82-3.844c-1.345-1.267-2.713-2.517-4.104-3.75c-2.215,2.121-4.604,4.003-7.166,5.646
				c-2.564,1.646-5.158,3.055-7.784,4.225L220.27,94.1c4.175-2.119,7.79-4.737,10.843-7.854s5.37-6.43,6.952-9.941
				c-0.918,0.032-1.906,0.079-2.966,0.143s-2.048,0.111-2.965,0.143c-0.349,0-0.823,0.031-1.425,0.095
				c-0.6,0.063-1.241,0.142-1.92,0.237c-0.681,0.095-1.353,0.189-2.017,0.285c-0.664,0.094-1.25,0.175-1.756,0.237l-2.99-4.414
				c0.411,0.063,0.973,0.144,1.686,0.237c0.71,0.095,1.454,0.176,2.229,0.237c0.774,0.063,1.542,0.117,2.3,0.166
				c0.76,0.047,1.377,0.071,1.852,0.071c2.374,0.032,4.704-0.039,6.999-0.213c2.293-0.174,4.389-0.466,6.288-0.879l1.567,1.519
				c-0.728,1.894-1.63,3.655-2.706,5.28C241.166,81.075,239.948,82.63,238.587,84.114z M251.875,104.778
				c0-0.76-0.143-1.471-0.428-2.135c-0.284-0.664-0.672-1.241-1.162-1.732c-0.491-0.491-1.053-0.878-1.685-1.163
				c-0.634-0.285-1.281-0.427-1.945-0.427c-0.665,0-1.313,0.142-1.945,0.427c-0.634,0.285-1.195,0.672-1.686,1.163
				s-0.877,1.068-1.163,1.732c-0.283,0.664-0.427,1.375-0.427,2.135c0,0.823,0.144,1.566,0.427,2.23
				c0.286,0.664,0.673,1.241,1.163,1.732c0.49,0.49,1.052,0.869,1.686,1.138c0.633,0.27,1.28,0.404,1.945,0.404
				c0.695,0,1.36-0.135,1.993-0.404c0.632-0.269,1.186-0.647,1.66-1.138c0.475-0.491,0.854-1.068,1.139-1.732
				C251.732,106.344,251.875,105.601,251.875,104.778z M252.111,84.325c-1.612,0.096-3.193,0.237-4.744,0.428
				c-1.551,0.189-2.8,0.427-3.748,0.712l-2.09-4.318c0.38,0.063,0.863,0.127,1.448,0.189c0.585,0.063,1.201,0.118,1.851,0.167
				c0.648,0.046,1.288,0.078,1.921,0.095s1.188,0.023,1.661,0.023c0.442-0.031,0.989-0.063,1.639-0.094
				c0.646-0.032,1.335-0.032,2.063,0v-8.028c0-0.913-0.467-1.661-1.398-2.248c-0.933-0.585-2.444-1.145-4.532-1.684l1.091-2.089
				c0.729,0.095,1.581,0.223,2.563,0.38c0.98,0.158,1.979,0.333,2.99,0.522c1.013,0.189,1.984,0.365,2.918,0.521
				c0.933,0.159,1.701,0.285,2.303,0.379c-0.064,0.286-0.129,0.664-0.191,1.14s-0.117,0.949-0.164,1.424
				c-0.048,0.474-0.088,0.894-0.12,1.258s-0.048,0.563-0.048,0.593v14.569c0,0.569-0.03,1.249-0.094,2.04
				c-0.065,0.792-0.143,1.575-0.238,2.35c-0.095,0.775-0.188,1.511-0.284,2.206c-0.096,0.696-0.189,1.233-0.284,1.613l-4.034,0.664
				c-0.063-0.347-0.128-0.789-0.19-1.329c-0.063-0.536-0.117-1.099-0.165-1.684c-0.048-0.584-0.08-1.162-0.096-1.733
				c-0.016-0.568-0.024-1.074-0.024-1.517V84.325z"/>
			<path fill="#FFFFFF" d="M278.211,93.199c-1.044-0.253-2.017-0.608-2.918-1.068c-0.902-0.457-1.669-0.987-2.303-1.588
				c-0.633-0.601-1.132-1.266-1.494-1.993c-0.364-0.728-0.546-1.473-0.546-2.23c0-1.044,0.254-2.001,0.76-2.871
				c0.505-0.87,1.209-1.629,2.112-2.279c0.902-0.646,1.96-1.154,3.179-1.518c1.218-0.363,2.521-0.546,3.914-0.546
				c1.455,0,2.792,0.205,4.01,0.614c1.22,0.411,2.271,0.946,3.157,1.609c0.885,0.661,1.572,1.426,2.063,2.293
				c0.489,0.867,0.735,1.759,0.735,2.673c0,0.789-0.182,1.545-0.547,2.269c-0.362,0.726-0.869,1.389-1.517,1.988
				c-0.65,0.598-1.416,1.119-2.303,1.561c-0.886,0.441-1.85,0.772-2.895,0.993v2.372c2.184-0.19,4.295-0.443,6.335-0.76
				c2.041-0.315,3.978-0.647,5.813-0.997V73.554c0-0.918-0.442-1.678-1.328-2.279c-0.886-0.601-2.421-1.169-4.602-1.708
				c0.188-0.349,0.379-0.695,0.568-1.045c0.19-0.348,0.364-0.695,0.523-1.044c0.79,0.095,1.684,0.223,2.68,0.38
				c0.998,0.158,2,0.333,3.015,0.522c1.011,0.189,1.975,0.365,2.894,0.521c0.918,0.159,1.677,0.285,2.277,0.379
				c-0.063,0.286-0.134,0.664-0.213,1.14c-0.08,0.476-0.15,0.949-0.214,1.424c-0.065,0.474-0.118,0.894-0.166,1.258
				c-0.049,0.364-0.071,0.563-0.071,0.593v13.573c0.727-0.063,1.511-0.134,2.35-0.215c0.837-0.078,1.669-0.174,2.49-0.284
				c0.824-0.11,1.621-0.229,2.396-0.356c0.775-0.125,1.465-0.252,2.064-0.379c-0.127,0.728-0.229,1.456-0.308,2.183
				c-0.08,0.728-0.167,1.456-0.262,2.183c-0.474-0.031-1.06-0.054-1.756-0.071c-0.695-0.016-1.439-0.023-2.23-0.023s-1.598,0-2.42,0
				c-0.824,0-1.599,0-2.325,0v3.845c0,0.727-0.024,1.518-0.07,2.372c-0.048,0.854-0.112,1.708-0.19,2.563
				c-0.079,0.854-0.174,1.661-0.285,2.42c-0.111,0.76-0.213,1.393-0.308,1.899c-0.664,0.125-1.338,0.244-2.018,0.355
				c-0.681,0.111-1.368,0.229-2.063,0.354c-0.064-0.379-0.12-0.86-0.167-1.446c-0.046-0.586-0.088-1.202-0.118-1.852
				c-0.032-0.647-0.064-1.304-0.095-1.968c-0.032-0.664-0.049-1.282-0.049-1.851v-0.665c-2.878,0.602-5.607,1.084-8.186,1.447
				c-2.577,0.363-5.053,0.681-7.425,0.949c-2.374,0.269-4.675,0.514-6.905,0.734c-2.23,0.223-4.437,0.491-6.62,0.809
				c-0.442-0.791-0.886-1.551-1.328-2.279c-0.443-0.727-0.887-1.486-1.33-2.277c0.477,0.063,1.062,0.127,1.757,0.189
				c0.695,0.064,1.423,0.119,2.183,0.165c0.759,0.049,1.487,0.089,2.184,0.119c0.694,0.033,1.265,0.049,1.709,0.049
				c2.213,0,4.348-0.096,6.405-0.285V93.199z M295.295,74.027c-0.128,0.665-0.238,1.306-0.333,1.922
				c-0.094,0.617-0.205,1.242-0.333,1.876c-2.626,0-5.251,0.016-7.876,0.047c-2.627,0.031-5.118,0.088-7.475,0.165
				c-2.356,0.08-4.501,0.198-6.43,0.356c-1.93,0.158-3.528,0.364-4.793,0.618c-0.348-0.759-0.712-1.473-1.092-2.137
				s-0.743-1.36-1.092-2.088c0.412,0.096,0.957,0.19,1.637,0.284c0.682,0.096,1.394,0.183,2.138,0.262
				c0.742,0.079,1.47,0.143,2.183,0.189c0.711,0.048,1.287,0.072,1.731,0.072c1.044,0,2.459-0.024,4.247-0.072
				c1.787-0.047,3.701-0.126,5.741-0.237c2.041-0.11,4.098-0.268,6.17-0.474C291.79,74.605,293.649,74.344,295.295,74.027z
				 M288.556,70.231c-0.159,0.569-0.309,1.124-0.452,1.661c-0.142,0.538-0.275,1.107-0.401,1.708
				c-1.299-0.031-2.461-0.046-3.488-0.046c-1.029,0-2.018,0.007-2.967,0.022c-0.949,0.017-1.921,0.071-2.918,0.166
				c-0.996,0.096-2.111,0.222-3.345,0.38c-0.38-0.696-0.751-1.345-1.116-1.946c-0.363-0.601-0.752-1.25-1.162-1.945
				c0.347,0.094,0.846,0.189,1.495,0.285c0.647,0.094,1.329,0.188,2.04,0.284c0.712,0.096,1.384,0.166,2.018,0.214
				c0.632,0.047,1.121,0.07,1.47,0.07c0.348,0,0.879-0.023,1.589-0.07c0.713-0.048,1.487-0.11,2.327-0.189
				c0.838-0.079,1.691-0.166,2.563-0.262C287.078,70.468,287.859,70.358,288.556,70.231z M304.738,107.814
				c-0.095,0.697-0.214,1.409-0.356,2.137c-0.141,0.728-0.26,1.438-0.355,2.136c-1.708-0.096-3.487-0.159-5.339-0.189
				c-1.852-0.032-3.709-0.049-5.575-0.049c-2.468,0-4.809,0.049-7.023,0.143c-2.216,0.096-4.082,0.144-5.601,0.144
				c-1.17,0-1.991-0.27-2.468-0.808c-0.474-0.539-0.711-1.17-0.711-1.897v-3.229c0-0.664-0.03-1.208-0.095-1.637
				c-0.063-0.427-0.229-0.774-0.498-1.043s-0.68-0.498-1.233-0.688c-0.554-0.189-1.321-0.396-2.302-0.617
				c0.158-0.348,0.316-0.703,0.474-1.068c0.158-0.361,0.333-0.718,0.523-1.066c0.409,0.063,1.02,0.149,1.826,0.26
				c0.809,0.112,1.646,0.223,2.515,0.334c0.87,0.111,1.709,0.229,2.516,0.355c0.807,0.126,1.432,0.222,1.874,0.285
				c-0.063,0.379-0.128,0.963-0.19,1.755c-0.063,0.791-0.094,1.487-0.094,2.087v2.801c0,0.316,0.017,0.554,0.048,0.712
				s0.125,0.269,0.283,0.331c0.158,0.063,0.388,0.096,0.689,0.096c0.3,0,0.735,0,1.304,0c1.265,0,2.775-0.032,4.534-0.096
				c1.755-0.063,3.55-0.149,5.386-0.26c1.833-0.111,3.621-0.246,5.361-0.404C301.969,108.178,303.472,108.005,304.738,107.814z
				 M276.503,86.057c0,0.566,0.118,1.108,0.356,1.629c0.236,0.518,0.552,0.976,0.948,1.367c0.396,0.394,0.862,0.709,1.4,0.944
				c0.536,0.237,1.105,0.354,1.707,0.354c0.57,0,1.123-0.11,1.661-0.33c0.537-0.221,1.004-0.527,1.399-0.92
				c0.396-0.394,0.712-0.851,0.949-1.368c0.239-0.52,0.356-1.079,0.356-1.677c0-0.565-0.117-1.116-0.356-1.651
				c-0.237-0.534-0.554-1.008-0.949-1.416c-0.396-0.41-0.854-0.731-1.376-0.968c-0.522-0.235-1.084-0.354-1.685-0.354
				c-1.233,0-2.276,0.409-3.132,1.228C276.929,83.713,276.503,84.767,276.503,86.057z"/>
			<path fill="#FFFFFF" d="M341.752,85.464c0.855,0.854,1.771,1.748,2.754,2.681c0.981,0.933,1.992,1.867,3.037,2.8
				c1.043,0.935,2.104,1.844,3.179,2.729s2.135,1.707,3.178,2.467l-3.89,3.939c-1.487-1.74-3.093-3.679-4.815-5.813
				c-1.727-2.137-3.41-4.2-5.054-6.193c-1.646,2.342-3.578,4.557-5.79,6.644c-2.216,2.088-4.777,4.161-7.688,6.218l-1.613-1.52
				c1.834-1.455,3.52-3.06,5.054-4.816c1.534-1.756,2.91-3.575,4.129-5.458c1.217-1.882,2.254-3.772,3.107-5.67
				c0.854-1.898,1.502-3.702,1.945-5.411c0.19-0.568,0.246-0.908,0.169-1.02c-0.082-0.11-0.152-0.276-0.216-0.498
				c-0.157-0.315-0.522-0.648-1.091-0.996c-0.57-0.349-1.217-0.648-1.944-0.902l0.995-1.756c0.665,0.158,1.399,0.356,2.206,0.594
				c0.808,0.236,1.629,0.482,2.468,0.736c0.838,0.252,1.661,0.497,2.467,0.734c0.809,0.237,1.526,0.436,2.16,0.594
				c-0.697,1.866-1.415,3.606-2.16,5.22C343.595,82.378,342.734,83.946,341.752,85.464z M361.731,99.748
				c0,0.981-0.023,2.111-0.07,3.394c-0.048,1.281-0.111,2.57-0.19,3.867c-0.08,1.297-0.158,2.53-0.237,3.702
				c-0.079,1.169-0.167,2.103-0.26,2.799l-4.178,0.569c-0.063-0.506-0.117-1.193-0.166-2.063c-0.047-0.871-0.094-1.813-0.142-2.824
				c-0.049-1.013-0.079-2.041-0.095-3.085c-0.017-1.044-0.023-2.022-0.023-2.941V73.505c0-0.917-0.443-1.668-1.329-2.255
				c-0.886-0.585-2.373-1.145-4.46-1.684l0.948-2.089c0.791,0.095,1.684,0.223,2.683,0.38c0.995,0.158,1.999,0.333,3.012,0.522
				c1.012,0.189,1.97,0.365,2.871,0.521c0.903,0.159,1.653,0.285,2.254,0.379c-0.095,0.286-0.175,0.664-0.237,1.14
				c-0.063,0.476-0.127,0.949-0.189,1.424c-0.064,0.474-0.111,0.894-0.143,1.258s-0.048,0.563-0.048,0.593v13.43
				c0.696-0.063,1.463-0.142,2.304-0.236c0.837-0.096,1.674-0.19,2.514-0.285c0.837-0.095,1.645-0.197,2.421-0.309
				c0.774-0.11,1.446-0.244,2.016-0.404l-0.475,4.414c-0.474-0.031-1.06-0.047-1.756-0.047s-1.447,0-2.253,0
				c-0.808,0-1.624,0-2.445,0s-1.597,0-2.325,0V99.748z"/>
			<path fill="#FFFFFF" d="M397.512,102.594c0,0.854-0.023,1.765-0.07,2.729c-0.049,0.965-0.104,1.921-0.167,2.871
				c-0.063,0.949-0.15,1.866-0.262,2.752c-0.111,0.885-0.212,1.661-0.309,2.325l-4.269,0.713c-0.064-0.539-0.111-1.219-0.145-2.042
				c-0.031-0.822-0.054-1.692-0.07-2.608c-0.017-0.919-0.023-1.828-0.023-2.729s0-1.699,0-2.396v-8.827
				c-1.202,0-2.372,0.017-3.512,0.048c-1.139,0.032-2.199,0.063-3.179,0.095c-0.981,0.032-1.86,0.072-2.637,0.119
				c-0.774,0.047-1.396,0.088-1.872,0.118c-0.601,0.033-1.251,0.08-1.945,0.143c-0.697,0.064-1.385,0.127-2.065,0.189
				c-0.681,0.064-1.352,0.135-2.017,0.215c-0.663,0.078-1.266,0.15-1.803,0.213l-1.897-4.698c0.695,0.096,1.463,0.174,2.3,0.237
				c0.837,0.064,1.693,0.135,2.563,0.214c0.869,0.079,1.725,0.15,2.562,0.213c0.838,0.063,1.591,0.111,2.256,0.144
				c0.759,0,1.74,0,2.94,0c1.204,0,2.517-0.017,3.939-0.048c1.424-0.032,2.902-0.063,4.436-0.096
				c1.535-0.03,3.015-0.072,4.438-0.118c1.425-0.047,2.729-0.088,3.914-0.118c1.188-0.032,2.16-0.063,2.92-0.096
				c1.045-0.03,2.136-0.095,3.275-0.188c1.139-0.096,2.27-0.197,3.393-0.31c1.122-0.11,2.206-0.221,3.251-0.332
				c1.043-0.11,1.991-0.229,2.848-0.356l-0.665,4.461c-0.634-0.031-1.386-0.063-2.255-0.095c-0.87-0.03-1.811-0.055-2.822-0.071
				c-1.013-0.015-2.058-0.039-3.132-0.07c-1.076-0.032-2.137-0.049-3.181-0.049c-0.823,0-1.795,0-2.919,0
				c-1.122,0-2.396,0.049-3.819,0.143V102.594z M406.196,83.043c0.38,0,0.713-0.006,0.998-0.024
				c0.283-0.015,0.536-0.038,0.759-0.069l-0.759,3.891c-1.077-0.063-2.468-0.11-4.176-0.143c-1.708-0.03-3.521-0.055-5.435-0.071
				c-1.914-0.016-3.828-0.016-5.741,0c-1.917,0.017-3.601,0.041-5.054,0.071c0,0.35-0.081,0.792-0.239,1.329l-3.795,0.522
				c-0.159-0.57-0.317-1.322-0.475-2.255c-0.159-0.933-0.271-1.811-0.333-2.634l-0.759-8.114c-0.064-0.538-0.127-0.973-0.189-1.305
				c-0.065-0.332-0.206-0.609-0.427-0.831c-0.223-0.222-0.539-0.411-0.95-0.57c-0.411-0.156-0.982-0.332-1.708-0.522l0.9-2.134
				c2.09,0.284,4.375,0.475,6.858,0.568c2.482,0.096,4.998,0.128,7.546,0.096c2.545-0.032,5.053-0.11,7.521-0.238
				c2.468-0.125,4.746-0.285,6.834-0.474c-0.097,0.79-0.198,1.725-0.309,2.799c-0.111,1.077-0.23,2.207-0.356,3.394
				c-0.129,1.188-0.254,2.366-0.38,3.536C406.402,81.036,406.292,82.094,406.196,83.043z M401.639,73.743
				c-0.948-0.032-2.109-0.055-3.486-0.071c-1.376-0.016-2.776-0.007-4.199,0.023c-1.424,0.033-2.793,0.071-4.105,0.119
				c-1.313,0.048-2.381,0.103-3.203,0.165l0.428,8.971c0,0.156,0,0.309,0,0.449c0,0.144,0.015,0.293,0.047,0.452
				c1.045-0.031,2.167-0.063,3.369-0.096c1.201-0.03,2.42-0.07,3.655-0.118c1.232-0.047,2.467-0.087,3.7-0.119
				c1.234-0.031,2.421-0.063,3.559-0.095L401.639,73.743z"/>
			<path fill="#FFFFFF" d="M443.875,103.117c1.17-0.063,2.223-0.11,3.156-0.143c0.932-0.031,1.716-0.063,2.349-0.095
				c1.043-0.03,2.135-0.095,3.273-0.189c1.14-0.096,2.27-0.196,3.393-0.308c1.124-0.11,2.209-0.229,3.251-0.356
				c1.045-0.128,1.994-0.238,2.848-0.332l-0.663,4.412c-0.634-0.03-1.385-0.063-2.255-0.094c-0.871-0.031-1.819-0.056-2.848-0.071
				c-1.027-0.016-2.088-0.032-3.179-0.048s-2.16-0.023-3.203-0.023c-0.855,0-1.907,0.017-3.155,0.047
				c-1.25,0.033-2.595,0.064-4.035,0.096c-1.439,0.031-2.918,0.079-4.437,0.142c-1.52,0.063-2.959,0.119-4.318,0.167
				c-1.36,0.047-2.594,0.096-3.701,0.142c-1.106,0.047-1.963,0.088-2.563,0.118c-1.201,0.064-2.529,0.167-3.986,0.309
				c-1.456,0.143-2.769,0.309-3.938,0.499l-1.755-4.936c1.392,0.19,2.972,0.355,4.745,0.498c1.771,0.144,3.401,0.246,4.888,0.309
				c1.139,0.065,2.683,0.09,4.627,0.074c1.945-0.018,3.961-0.057,6.052-0.121v-7.404c0-0.441-0.049-0.813-0.144-1.113
				c-0.096-0.301-0.285-0.546-0.568-0.736c-0.286-0.189-0.706-0.349-1.258-0.475c-0.554-0.126-1.275-0.237-2.16-0.333l0.808-2.04
				c0.537,0,1.21,0.017,2.016,0.048c0.806,0.032,1.645,0.071,2.515,0.119c0.871,0.047,1.717,0.111,2.539,0.188
				c0.822,0.08,1.519,0.168,2.087,0.262c-0.063,0.287-0.117,0.645-0.164,1.073c-0.048,0.429-0.087,0.857-0.119,1.286
				c-0.03,0.428-0.055,0.802-0.071,1.119c-0.016,0.318-0.023,0.526-0.023,0.621V103.117z M441.786,79.675
				c1.359,0.854,2.825,1.724,4.391,2.609c1.565,0.887,3.133,1.732,4.698,2.538c1.565,0.808,3.067,1.542,4.508,2.206
				c1.438,0.664,2.712,1.204,3.82,1.615l-3.845,4.033c-1.108-0.854-2.309-1.74-3.606-2.657c-1.297-0.917-2.625-1.843-3.985-2.775
				c-1.36-0.934-2.729-1.845-4.105-2.729c-1.375-0.886-2.681-1.708-3.914-2.468c-2.373,2.657-5.063,4.981-8.068,6.976
				c-3.005,1.993-6.122,3.766-9.349,5.315l-1.279-1.852c3.986-2.309,7.456-4.862,10.414-7.664c2.959-2.8,5.26-5.78,6.905-8.944
				c0.126-0.254,0.183-0.507,0.166-0.76c-0.017-0.252-0.071-0.442-0.166-0.568c-0.128-0.127-0.34-0.278-0.641-0.452
				c-0.301-0.173-0.617-0.347-0.949-0.521c-0.331-0.175-0.648-0.324-0.95-0.45c-0.301-0.127-0.513-0.206-0.64-0.238l1.518-1.708
				c0.602,0.159,1.297,0.355,2.091,0.593c0.788,0.237,1.587,0.483,2.395,0.735c0.808,0.254,1.592,0.499,2.35,0.736
				c0.759,0.237,1.422,0.45,1.993,0.641c-0.539,1.075-1.115,2.087-1.731,3.037C443.186,77.872,442.514,78.789,441.786,79.675z"/>
		</g>
		<g>
			<path fill="#FFFFFF" d="M194.165,49.68c-1.371-0.069-2.88-0.069-4.525,0c-1.645,0.069-3.269,0.125-4.868,0.171
				c-0.046,0.182-0.086,0.365-0.12,0.548c-0.035,0.183-0.074,0.354-0.121,0.514l-2.845,0.48c-0.114-0.458-0.193-1.057-0.24-1.8
				c-0.046-0.742-0.068-1.435-0.068-2.073v-5.862c0-0.343-0.029-0.64-0.086-0.892c-0.057-0.251-0.188-0.463-0.394-0.634
				c-0.207-0.172-0.497-0.326-0.875-0.463c-0.376-0.137-0.885-0.275-1.525-0.412l0.755-1.405c0.388,0.046,0.856,0.098,1.405,0.154
				c0.548,0.058,1.114,0.132,1.696,0.223c0.583,0.091,1.16,0.183,1.732,0.274c0.571,0.091,1.085,0.183,1.542,0.274
				c-0.046,0.206-0.092,0.463-0.136,0.771c-0.047,0.308-0.092,0.606-0.138,0.891c-0.046,0.287-0.081,0.544-0.103,0.771
				c-0.023,0.229-0.034,0.378-0.034,0.446v0.137c1.372-0.045,2.816-0.109,4.336-0.188c1.52-0.08,3.01-0.177,4.474-0.292v-0.789
				c0-0.319-0.041-0.592-0.12-0.822c-0.08-0.228-0.234-0.428-0.462-0.6c-0.229-0.171-0.538-0.331-0.925-0.479
				c-0.39-0.149-0.904-0.303-1.543-0.463l0.618-1.508c0.388,0.045,0.833,0.102,1.336,0.171c0.502,0.068,1.016,0.137,1.542,0.206
				c-0.046-0.229-0.08-0.531-0.103-0.909c-0.022-0.377-0.051-0.776-0.084-1.2c-0.035-0.422-0.058-0.839-0.069-1.251
				c-0.012-0.411-0.018-0.775-0.018-1.097v-3.461c-0.64,0.046-1.36,0.149-2.16,0.308c-0.8,0.161-1.497,0.299-2.092,0.412
				l-0.685-1.371v2.914c0,1.189-0.064,2.183-0.189,2.983c-0.126,0.8-0.223,1.463-0.292,1.987l-2.948,0.447
				c0-0.183-0.022-0.371-0.069-0.566c-0.046-0.194-0.091-0.417-0.137-0.668c-1.165-0.022-2.434-0.018-3.805,0.018
				c-1.372,0.034-2.663,0.097-3.874,0.188c-0.069,0.138-0.12,0.286-0.155,0.446c-0.035,0.16-0.074,0.332-0.12,0.514l-2.844,0.411
				c-0.046-0.411-0.098-0.994-0.155-1.748c-0.058-0.755-0.086-1.451-0.086-2.091v-7.576c0-0.343-0.034-0.634-0.103-0.875
				c-0.069-0.24-0.206-0.457-0.411-0.651c-0.206-0.194-0.504-0.359-0.892-0.497c-0.389-0.137-0.891-0.274-1.508-0.411l0.72-1.337
				c0.388,0.046,0.851,0.097,1.388,0.154c0.538,0.057,1.097,0.126,1.68,0.205c0.583,0.082,1.159,0.167,1.73,0.258
				c0.571,0.091,1.085,0.172,1.543,0.241c-0.046,0.205-0.092,0.468-0.137,0.788c-0.045,0.321-0.085,0.63-0.119,0.926
				c-0.036,0.296-0.064,0.561-0.086,0.789c-0.023,0.228-0.034,0.377-0.034,0.445v0.925c1.097-0.045,2.262-0.102,3.496-0.171
				c1.235-0.068,2.435-0.125,3.6-0.171v-1.954c0-0.343-0.04-0.623-0.12-0.84c-0.081-0.217-0.229-0.411-0.445-0.582
				c-0.218-0.172-0.521-0.326-0.909-0.464c-0.389-0.136-0.903-0.284-1.543-0.446l0.652-1.577c0.479,0.046,1.016,0.109,1.61,0.189
				s1.194,0.166,1.8,0.257c0.605,0.092,1.194,0.184,1.766,0.274c0.571,0.092,1.063,0.184,1.474,0.275
				c-0.046,0.207-0.098,0.466-0.154,0.775c-0.058,0.311-0.109,0.615-0.154,0.914c-0.046,0.3-0.086,0.569-0.12,0.811
				c-0.034,0.242-0.051,0.397-0.051,0.466v2.587c0.296,0.046,0.634,0.075,1.011,0.086c0.376,0.011,0.759,0.017,1.148,0.017
				c0.389,0,0.754-0.006,1.098-0.017c0.342-0.011,0.639-0.017,0.891-0.017c0.114,0.023,0.234,0.023,0.36,0
				c0.125-0.023,0.269-0.035,0.429-0.035v-4.622c0-0.666-0.338-1.211-1.011-1.633c-0.674-0.423-1.766-0.829-3.274-1.217l0.789-1.509
				c0.525,0.068,1.143,0.161,1.852,0.274c0.708,0.115,1.427,0.24,2.159,0.377c0.73,0.137,1.434,0.263,2.108,0.377
				c0.674,0.115,1.229,0.206,1.663,0.275c-0.046,0.205-0.085,0.479-0.12,0.823c-0.035,0.342-0.075,0.685-0.121,1.028
				c-0.046,0.342-0.08,0.645-0.103,0.908c-0.023,0.262-0.034,0.405-0.034,0.428v8.159c0,0.412-0.023,0.897-0.068,1.457
				c-0.047,0.561-0.103,1.12-0.171,1.68c-0.069,0.56-0.138,1.091-0.206,1.594c-0.069,0.503-0.137,0.891-0.205,1.166l-2.983,0.411
				c0.663,0.114,1.332,0.218,2.006,0.308c0.674,0.091,1.274,0.183,1.799,0.274c-0.069,0.229-0.125,0.497-0.171,0.805
				c-0.046,0.31-0.092,0.612-0.138,0.91c-0.046,0.296-0.08,0.56-0.102,0.788c-0.023,0.229-0.035,0.377-0.035,0.446v5.073
				c0,1.166-0.075,2.143-0.223,2.931c-0.149,0.789-0.28,1.444-0.395,1.972l-2.845,0.445c-0.046-0.183-0.08-0.383-0.103-0.6
				S194.21,49.931,194.165,49.68z M185.458,28.597c-1.097-0.022-2.269-0.017-3.514,0.018c-1.246,0.035-2.439,0.074-3.582,0.12v3.086
				c0,0.364-0.006,0.685-0.017,0.958c-0.012,0.275-0.029,0.539-0.052,0.789c1.097-0.022,2.285-0.074,3.565-0.154
				c1.28-0.079,2.48-0.166,3.6-0.256V28.597z M194.027,43.544c-1.417,0-2.88,0.034-4.388,0.102
				c-1.509,0.069-2.982,0.159-4.422,0.272v2.174c0,0.634-0.035,1.156-0.103,1.565c1.417-0.046,2.907-0.098,4.474-0.154
				c1.565-0.058,3.045-0.121,4.439-0.188V43.544z"/>
			<path fill="#FFFFFF" d="M222.103,43.441c0,0.616-0.017,1.274-0.051,1.971c-0.035,0.697-0.074,1.389-0.12,2.074
				c-0.046,0.686-0.109,1.349-0.189,1.988c-0.08,0.639-0.155,1.2-0.223,1.68l-3.085,0.514c-0.045-0.389-0.08-0.88-0.103-1.475
				c-0.022-0.594-0.039-1.223-0.05-1.885c-0.013-0.663-0.018-1.319-0.018-1.971c0-0.652,0-1.229,0-1.731V38.23
				c-0.869,0-1.714,0.011-2.537,0.034c-0.823,0.023-1.588,0.046-2.297,0.069c-0.708,0.022-1.343,0.051-1.902,0.084
				c-0.561,0.035-1.011,0.064-1.354,0.087c-0.435,0.023-0.903,0.056-1.406,0.103c-0.503,0.046-1,0.091-1.492,0.138
				c-0.491,0.046-0.976,0.096-1.457,0.154c-0.479,0.056-0.915,0.107-1.303,0.154l-1.372-3.394c0.503,0.069,1.058,0.126,1.663,0.171
				c0.605,0.046,1.223,0.098,1.852,0.155c0.628,0.057,1.245,0.108,1.851,0.154c0.605,0.046,1.148,0.081,1.629,0.103
				c0.548,0,1.256,0,2.125,0s1.816-0.011,2.845-0.034c1.028-0.023,2.097-0.045,3.206-0.069c1.108-0.023,2.177-0.05,3.205-0.086
				c1.029-0.034,1.972-0.062,2.828-0.086c0.857-0.021,1.561-0.045,2.109-0.067c0.753-0.023,1.542-0.069,2.365-0.138
				c0.824-0.068,1.64-0.143,2.452-0.223c0.81-0.079,1.593-0.159,2.347-0.239s1.44-0.166,2.057-0.258l-0.479,3.222
				c-0.458-0.022-1-0.045-1.628-0.068c-0.629-0.024-1.309-0.04-2.041-0.051c-0.732-0.011-1.486-0.028-2.263-0.052
				c-0.776-0.021-1.542-0.034-2.296-0.034c-0.594,0-1.297,0-2.108,0c-0.81,0-1.731,0.034-2.759,0.103V43.441z M228.376,29.317
				c0.275,0,0.515-0.005,0.72-0.017c0.206-0.011,0.389-0.028,0.549-0.051l-0.549,2.812c-0.778-0.046-1.782-0.08-3.017-0.103
				c-1.233-0.022-2.542-0.04-3.925-0.051c-1.384-0.011-2.766-0.011-4.148,0c-1.382,0.011-2.6,0.029-3.651,0.051
				c0,0.252-0.057,0.571-0.171,0.959l-2.743,0.377c-0.114-0.411-0.229-0.954-0.343-1.628c-0.115-0.673-0.194-1.308-0.24-1.902
				l-0.548-5.862c-0.046-0.388-0.092-0.703-0.137-0.942c-0.046-0.241-0.149-0.44-0.309-0.6c-0.161-0.16-0.389-0.296-0.686-0.412
				c-0.297-0.115-0.708-0.239-1.234-0.377l0.651-1.543c1.508,0.207,3.159,0.343,4.954,0.412c1.794,0.069,3.61,0.091,5.45,0.069
				c1.84-0.023,3.652-0.08,5.433-0.172c1.783-0.091,3.429-0.207,4.937-0.343c-0.068,0.572-0.143,1.246-0.223,2.023
				c-0.08,0.778-0.166,1.594-0.257,2.452c-0.091,0.856-0.183,1.708-0.275,2.554C228.524,27.867,228.446,28.632,228.376,29.317z
				 M225.085,22.598c-0.686-0.023-1.525-0.039-2.52-0.05c-0.993-0.011-2.006-0.006-3.034,0.016
				c-1.028,0.023-2.017,0.052-2.965,0.086c-0.949,0.034-1.72,0.075-2.314,0.12l0.309,6.479c0,0.115,0,0.224,0,0.327
				c0,0.102,0.01,0.21,0.034,0.326c0.754-0.023,1.565-0.046,2.434-0.069c0.869-0.022,1.749-0.051,2.641-0.086
				c0.89-0.034,1.781-0.063,2.673-0.085c0.891-0.022,1.748-0.046,2.571-0.069L225.085,22.598z"/>
			<path fill="#FFFFFF" d="M248.533,31.066c0.618,0.617,1.281,1.263,1.987,1.937c0.709,0.674,1.441,1.349,2.195,2.022
				c0.754,0.674,1.521,1.332,2.297,1.972c0.777,0.64,1.542,1.233,2.297,1.782l-2.811,2.846c-1.075-1.258-2.234-2.657-3.479-4.2
				c-1.247-1.542-2.463-3.034-3.652-4.473c-1.187,1.691-2.582,3.291-4.181,4.799c-1.601,1.507-3.451,3.005-5.553,4.49l-1.167-1.097
				c1.325-1.051,2.542-2.21,3.651-3.479c1.108-1.268,2.103-2.583,2.982-3.941c0.879-1.36,1.629-2.726,2.245-4.098
				c0.617-1.371,1.086-2.673,1.405-3.907c0.137-0.411,0.178-0.657,0.121-0.737c-0.059-0.081-0.109-0.201-0.155-0.36
				c-0.115-0.229-0.376-0.468-0.788-0.72c-0.412-0.251-0.881-0.468-1.405-0.651l0.72-1.269c0.479,0.115,1.012,0.258,1.593,0.429
				c0.584,0.171,1.178,0.349,1.783,0.532c0.605,0.184,1.2,0.359,1.783,0.531c0.582,0.171,1.104,0.314,1.56,0.428
				c-0.503,1.349-1.023,2.605-1.56,3.771C249.865,28.837,249.242,29.97,248.533,31.066z M262.966,41.384
				c0,0.709-0.018,1.525-0.052,2.451c-0.035,0.925-0.081,1.857-0.138,2.794c-0.058,0.937-0.115,1.828-0.17,2.674
				c-0.059,0.846-0.121,1.52-0.191,2.022l-3.016,0.411c-0.045-0.366-0.086-0.863-0.119-1.49c-0.035-0.63-0.068-1.309-0.104-2.041
				c-0.033-0.731-0.058-1.474-0.067-2.228c-0.013-0.755-0.019-1.463-0.019-2.125V22.427c0-0.662-0.319-1.206-0.958-1.627
				c-0.641-0.423-1.716-0.829-3.224-1.217l0.686-1.509c0.571,0.068,1.217,0.161,1.937,0.274c0.72,0.115,1.446,0.24,2.177,0.377
				c0.731,0.137,1.424,0.263,2.073,0.377c0.652,0.115,1.195,0.206,1.629,0.275c-0.067,0.205-0.126,0.479-0.171,0.823
				c-0.046,0.342-0.093,0.685-0.138,1.028c-0.047,0.342-0.079,0.645-0.103,0.908c-0.022,0.262-0.033,0.405-0.033,0.428v9.702
				c0.502-0.045,1.057-0.103,1.661-0.171c0.606-0.069,1.211-0.138,1.817-0.206c0.604-0.068,1.188-0.143,1.749-0.223
				c0.559-0.08,1.044-0.176,1.456-0.292l-0.344,3.188c-0.343-0.022-0.764-0.034-1.267-0.034c-0.504,0-1.046,0-1.629,0
				c-0.584,0-1.172,0-1.766,0c-0.595,0-1.154,0-1.679,0V41.384z"/>
		</g>
	</g>
</g>
</svg>
